<svg width="25" height="25" viewBox="0 0 25 25" fill="none" xmlns="http://www.w3.org/2000/svg">
<path fill-rule="evenodd" clip-rule="evenodd" d="M12.5 23.4375C15.4008 23.4375 18.1828 22.2852 20.234 20.234C22.2852 18.1828 23.4375 15.4008 23.4375 12.5C23.4375 9.59919 22.2852 6.8172 20.234 4.76602C18.1828 2.71484 15.4008 1.5625 12.5 1.5625C9.59919 1.5625 6.8172 2.71484 4.76602 4.76602C2.71484 6.8172 1.5625 9.59919 1.5625 12.5C1.5625 15.4008 2.71484 18.1828 4.76602 20.234C6.8172 22.2852 9.59919 23.4375 12.5 23.4375V23.4375ZM12.5 -5.46392e-07C15.8152 -6.91305e-07 18.9946 1.31696 21.3388 3.66116C23.683 6.00537 25 9.18479 25 12.5C25 15.8152 23.683 18.9946 21.3388 21.3388C18.9946 23.683 15.8152 25 12.5 25C9.18479 25 6.00537 23.683 3.66117 21.3388C1.31696 18.9946 -4.0148e-07 15.8152 -5.46392e-07 12.5C-6.91305e-07 9.18479 1.31696 6.00537 3.66116 3.66116C6.00537 1.31696 9.18479 -4.0148e-07 12.5 -5.46392e-07V-5.46392e-07ZM7.03125 11.7187C6.82405 11.7187 6.62534 11.8011 6.47882 11.9476C6.33231 12.0941 6.25 12.2928 6.25 12.5C6.25 12.7072 6.33231 12.9059 6.47882 13.0524C6.62534 13.1989 6.82405 13.2812 7.03125 13.2812L16.0828 13.2812L12.7281 16.6344C12.5814 16.7811 12.499 16.98 12.499 17.1875C12.499 17.395 12.5814 17.5939 12.7281 17.7406C12.8748 17.8873 13.0738 17.9697 13.2812 17.9697C13.4887 17.9697 13.6877 17.8873 13.8344 17.7406L18.5219 13.0531C18.5946 12.9806 18.6524 12.8943 18.6917 12.7994C18.7311 12.7045 18.7514 12.6028 18.7514 12.5C18.7514 12.3972 18.7311 12.2955 18.6917 12.2006C18.6524 12.1057 18.5946 12.0194 18.5219 11.9469L13.8344 7.25937C13.6877 7.11268 13.4887 7.03026 13.2812 7.03026C13.0738 7.03026 12.8748 7.11268 12.7281 7.25937C12.5814 7.40607 12.499 7.60504 12.499 7.8125C12.499 8.01996 12.5814 8.21893 12.7281 8.36562L16.0828 11.7187L7.03125 11.7187Z" fill="#E6E6E6"/>
</svg>
