<svg width="35" height="34" viewBox="0 0 35 34" fill="none" xmlns="http://www.w3.org/2000/svg">
<path d="M27.9972 12.2418C29.345 12.2411 30.6642 12.6296 31.7966 13.3605C32.9289 14.0914 33.8261 15.1337 34.3805 16.3621C34.9348 17.5906 35.1227 18.9529 34.9216 20.2856C34.7205 21.6182 34.1389 22.8645 33.2467 23.8746V31.9238C33.2471 32.1485 33.1899 32.3696 33.0804 32.5658C32.971 32.762 32.813 32.9268 32.6216 33.0445C32.4301 33.1621 32.2117 33.2287 31.9872 33.2377C31.7627 33.2468 31.5397 33.1981 31.3394 33.0962L31.1819 33L27.9972 30.7742L24.8125 33C24.6286 33.1284 24.4148 33.2075 24.1916 33.2298C23.9684 33.2521 23.7432 33.2168 23.5375 33.1273C23.3319 33.0378 23.1525 32.8971 23.0167 32.7186C22.8809 32.54 22.7931 32.3297 22.7617 32.1076L22.7495 31.9238V23.8711C21.8585 22.861 21.2779 21.6152 21.0773 20.2833C20.8767 18.9514 21.0647 17.5899 21.6188 16.3622C22.1728 15.1345 23.0692 14.0927 24.2006 13.3618C25.332 12.6309 26.6503 12.242 27.9972 12.2418ZM30.622 25.7329C29.788 26.0702 28.8968 26.2431 27.9972 26.2421C27.0977 26.2431 26.2064 26.0702 25.3725 25.7329V29.4058L27.2465 28.0987C27.4384 27.9643 27.6627 27.8836 27.8963 27.8652C28.1298 27.8467 28.3641 27.8911 28.5747 27.9937L28.7496 28.0987L30.622 29.4058V25.7329ZM30.1845 5.92938e-09C31.4099 -6.07876e-05 32.5891 0.467365 33.4817 1.30693C34.3743 2.1465 34.9129 3.29496 34.9878 4.51805L34.9965 4.81202L34.9983 13.9916C34.2887 13.0469 33.396 12.2548 32.3735 11.6626L32.3718 4.81202C32.372 4.27052 32.1714 3.74818 31.8087 3.34608C31.4461 2.94397 30.9471 2.69069 30.4085 2.63524L30.1845 2.62474H4.81202C4.27052 2.62449 3.74818 2.82512 3.34608 3.18779C2.94397 3.55046 2.69069 4.04939 2.63524 4.58804L2.62474 4.81202V21.4354C2.62474 22.5675 3.48565 23.5002 4.58804 23.6104L4.81202 23.6227L20.424 23.6244L20.6392 23.9796L20.8737 24.3226L20.9979 24.4871L20.9962 26.2474H4.81202C3.58636 26.2474 2.40687 25.7798 1.51426 24.9398C0.621644 24.0999 0.0831806 22.951 0.00874934 21.7276L5.92938e-09 21.4354V4.81202C-6.07876e-05 3.58664 0.467365 2.4074 1.30693 1.51483C2.1465 0.622259 3.29496 0.0836089 4.51805 0.00874934L4.81202 5.92938e-09H30.1845ZM27.9972 14.8665C26.8368 14.8665 25.7239 15.3275 24.9033 16.1481C24.0828 16.9686 23.6218 18.0815 23.6218 19.242C23.6218 20.4024 24.0828 21.5153 24.9033 22.3359C25.7239 23.1564 26.8368 23.6174 27.9972 23.6174C29.1577 23.6174 30.2706 23.1564 31.0911 22.3359C31.9117 21.5153 32.3727 20.4024 32.3727 19.242C32.3727 18.0815 31.9117 16.9686 31.0911 16.1481C30.2706 15.3275 29.1577 14.8665 27.9972 14.8665ZM16.1859 16.6163C16.5184 16.6165 16.8385 16.7428 17.0814 16.9698C17.3244 17.1968 17.4721 17.5075 17.4948 17.8393C17.5175 18.171 17.4134 18.499 17.2035 18.7569C16.9937 19.0148 16.6938 19.1835 16.3644 19.2288L16.1859 19.2411H8.31167C7.97917 19.241 7.65909 19.1147 7.41613 18.8877C7.17316 18.6607 7.02542 18.3499 7.00276 18.0182C6.98009 17.6864 7.0842 17.3585 7.29403 17.1005C7.50387 16.8426 7.80379 16.6739 8.13319 16.6286L8.31167 16.6163H16.1859ZM26.6848 6.99231C27.0174 6.99241 27.3374 7.11872 27.5804 7.34572C27.8234 7.57272 27.9711 7.88349 27.9938 8.21522C28.0164 8.54696 27.9123 8.87493 27.7025 9.13287C27.4927 9.3908 27.1927 9.55947 26.8633 9.6048L26.6848 9.61704H8.31167C7.97917 9.61694 7.65909 9.49063 7.41613 9.26363C7.17316 9.03662 7.02542 8.72586 7.00276 8.39413C6.98009 8.06239 7.0842 7.73442 7.29403 7.47648C7.50387 7.21855 7.80379 7.04988 8.13319 7.00455L8.31167 6.99231H26.6848Z" fill="#e5e5e5"/>
</svg>
