<svg width="20" height="20" viewBox="0 0 20 20" fill="none" xmlns="http://www.w3.org/2000/svg">
<path d="M19.068 3.16019L16.483 0.57767C16.3007 0.394523 16.0839 0.249209 15.8453 0.150074C15.6066 0.0509392 15.3507 -6.19408e-05 15.0922 5.64551e-08C14.5655 5.64551e-08 14.0704 0.206311 13.699 0.57767L10.9175 3.35922C10.7343 3.54157 10.589 3.7583 10.4899 3.99698C10.3907 4.23565 10.3397 4.49156 10.3398 4.75C10.3398 5.2767 10.5461 5.77184 10.9175 6.1432L12.9515 8.17718C12.4753 9.2266 11.8134 10.1813 10.9976 10.9951C10.1838 11.813 9.22919 12.4773 8.17961 12.9563L6.14563 10.9223C5.96329 10.7392 5.74655 10.5939 5.50788 10.4947C5.26921 10.3956 5.0133 10.3446 4.75486 10.3447C4.22816 10.3447 3.73301 10.551 3.36165 10.9223L0.577671 13.7015C0.3943 13.8841 0.24886 14.1013 0.149721 14.3404C0.0505815 14.5795 -0.000300774 14.8358 1.33747e-06 15.0947C1.33747e-06 15.6214 0.206312 16.1165 0.577671 16.4879L3.15777 19.068C3.75 19.6626 4.56796 20 5.40777 20C5.58495 20 5.75486 19.9854 5.92233 19.9563C9.19418 19.4175 12.4393 17.6772 15.0583 15.0607C17.6748 12.4466 19.4126 9.20388 19.9587 5.92233C20.1238 4.9199 19.7913 3.88835 19.068 3.16019V3.16019Z" fill="#E5E5E5"/>
</svg>
