<svg width="35" height="35" viewBox="0 0 35 45" fill="none" xmlns="http://www.w3.org/2000/svg">
<path d="M34.5327 11.1662L23.8338 0.46733C23.5355 0.169034 23.1328 0 22.7102 0H1.59091C0.710938 0 0 0.710938 0 1.59091V42.9545C0 43.8345 0.710938 44.5455 1.59091 44.5455H33.4091C34.2891 44.5455 35 43.8345 35 42.9545V12.2947C35 11.8722 34.831 11.4645 34.5327 11.1662ZM31.331 13.0256H21.9744V3.66903L31.331 13.0256ZM31.4205 40.9659H3.57955V3.57955H18.5938V14.3182C18.5938 14.872 18.8137 15.4031 19.2053 15.7947C19.5969 16.1863 20.128 16.4062 20.6818 16.4062H31.4205V40.9659ZM17.1023 27.5426H7.95455C7.7358 27.5426 7.55682 27.7216 7.55682 27.9403V30.3267C7.55682 30.5455 7.7358 30.7244 7.95455 30.7244H17.1023C17.321 30.7244 17.5 30.5455 17.5 30.3267V27.9403C17.5 27.7216 17.321 27.5426 17.1023 27.5426ZM7.55682 21.179V23.5653C7.55682 23.7841 7.7358 23.9631 7.95455 23.9631H27.0455C27.2642 23.9631 27.4432 23.7841 27.4432 23.5653V21.179C27.4432 20.9602 27.2642 20.7812 27.0455 20.7812H7.95455C7.7358 20.7812 7.55682 20.9602 7.55682 21.179Z" fill="#e5e5e5"/>
</svg>
