<svg width="20" height="16" viewBox="0 0 20 16" fill="none" xmlns="http://www.w3.org/2000/svg">
<path d="M19.0001 0.00658374C18.9149 -0.00219458 18.829 -0.00219458 18.7438 0.00658374H1.24385C1.13169 0.00831195 1.02027 0.0251296 0.912598 0.0565837L9.94385 9.05033L19.0001 0.00658374Z" fill="#E5E5E5"/>
<path d="M19.925 0.875366L10.825 9.93787C10.5908 10.1707 10.274 10.3014 9.94375 10.3014C9.61352 10.3014 9.2967 10.1707 9.0625 9.93787L0.04375 0.944116C0.0160246 1.04602 0.00132418 1.15102 0 1.25662V13.7566C0 14.0881 0.131696 14.4061 0.366117 14.6405C0.600537 14.8749 0.918479 15.0066 1.25 15.0066H18.75C19.0815 15.0066 19.3995 14.8749 19.6339 14.6405C19.8683 14.4061 20 14.0881 20 13.7566V1.25662C19.995 1.1264 19.9697 0.997763 19.925 0.875366V0.875366ZM2.10625 13.7566H1.2375V12.8629L5.78125 8.35662L6.6625 9.23787L2.10625 13.7566ZM18.7375 13.7566H17.8625L13.3062 9.23787L14.1875 8.35662L18.7312 12.8629L18.7375 13.7566Z" fill="#E5E5E5"/>
</svg>
