<svg width="20" height="20" viewBox="0 0 20 20" fill="none" xmlns="http://www.w3.org/2000/svg">
<path fill-rule="evenodd" clip-rule="evenodd" d="M10 0.0065918C4.475 0.0065918 0 4.48159 0 10.0066C0 14.4316 2.8625 18.1691 6.8375 19.4941C7.3375 19.5816 7.525 19.2816 7.525 19.0191C7.525 18.7816 7.5125 17.9941 7.5125 17.1566C5 17.6191 4.35 16.5441 4.15 15.9816C4.0375 15.6941 3.55 14.8066 3.125 14.5691C2.775 14.3816 2.275 13.9191 3.1125 13.9066C3.9 13.8941 4.4625 14.6316 4.65 14.9316C5.55 16.4441 6.9875 16.0191 7.5625 15.7566C7.65 15.1066 7.9125 14.6691 8.2 14.4191C5.975 14.1691 3.65 13.3066 3.65 9.48159C3.65 8.39409 4.0375 7.49409 4.675 6.79409C4.575 6.54409 4.225 5.51909 4.775 4.14409C4.775 4.14409 5.6125 3.88159 7.525 5.16909C8.325 4.94409 9.175 4.83159 10.025 4.83159C10.875 4.83159 11.725 4.94409 12.525 5.16909C14.4375 3.86909 15.275 4.14409 15.275 4.14409C15.825 5.51909 15.475 6.54409 15.375 6.79409C16.0125 7.49409 16.4 8.38159 16.4 9.48159C16.4 13.3191 14.0625 14.1691 11.8375 14.4191C12.2 14.7316 12.5125 15.3316 12.5125 16.2691C12.5125 17.6066 12.5 18.6816 12.5 19.0191C12.5 19.2816 12.6875 19.5941 13.1875 19.4941C15.1726 18.8239 16.8976 17.548 18.1197 15.8461C19.3418 14.1441 19.9994 12.1018 20 10.0066C20 4.48159 15.525 0.0065918 10 0.0065918Z" fill="#E5E5E5"/>
</svg>
