<svg width="35" height="35" viewBox="0 0 35 34" fill="none" xmlns="http://www.w3.org/2000/svg">
<path d="M34.2742 16.2627L19.357 1.35322L18.3571 0.353338C18.1293 0.127019 17.8212 0 17.5001 0C17.1789 0 16.8708 0.127019 16.643 0.353338L0.725945 16.2627C0.492501 16.4952 0.308007 16.7722 0.183352 17.0772C0.0586967 17.3822 -0.00359274 17.7091 0.000160019 18.0386C0.0156023 19.3975 1.14675 20.4823 2.50566 20.4823H4.1464V33.0561H30.8537V20.4823H32.5292C33.1894 20.4823 33.8109 20.2236 34.2781 19.7565C34.5081 19.5272 34.6903 19.2546 34.8142 18.9544C34.9382 18.6542 35.0013 18.3324 35 18.0077C35 17.3514 34.7413 16.7298 34.2742 16.2627ZM19.662 30.2765H15.3382V22.401H19.662V30.2765ZM28.0741 17.7027V30.2765H22.1327V21.4745C22.1327 20.6213 21.4417 19.9302 20.5885 19.9302H14.4116C13.5584 19.9302 12.8674 20.6213 12.8674 21.4745V30.2765H6.926V17.7027H3.21987L17.5039 3.4302L18.3957 4.32199L31.7841 17.7027H28.0741Z" fill="#1A1A1A"/>
</svg>
