<svg width="20" height="21" viewBox="0 0 20 21" fill="none" xmlns="http://www.w3.org/2000/svg">
<path fill-rule="evenodd" clip-rule="evenodd" d="M2.47327e-07 2.18413C2.47327e-07 1.74097 0.176042 1.31597 0.489398 1.00261C0.802754 0.689258 1.22776 0.513216 1.67091 0.513216H18.3273C18.5469 0.512858 18.7644 0.555819 18.9674 0.639641C19.1704 0.723462 19.3548 0.846498 19.5102 1.0017C19.6656 1.15691 19.7888 1.34124 19.8729 1.54413C19.9569 1.74703 20.0001 1.96451 20 2.18413V18.8405C20.0002 19.0601 19.9572 19.2777 19.8732 19.4807C19.7893 19.6837 19.6662 19.8681 19.5109 20.0235C19.3556 20.1789 19.1713 20.3021 18.9683 20.3861C18.7654 20.4701 18.5478 20.5133 18.3282 20.5132H1.67091C1.45141 20.5132 1.23405 20.47 1.03127 20.3859C0.828487 20.3019 0.644247 20.1787 0.489077 20.0235C0.333906 19.8682 0.210847 19.6839 0.12693 19.4811C0.0430121 19.2783 -0.000119178 19.0609 2.47327e-07 18.8414V2.18413ZM7.91636 8.13867H10.6245V9.49867C11.0155 8.71685 12.0155 8.01322 13.5182 8.01322C16.3991 8.01322 17.0818 9.57049 17.0818 12.4278V17.7205H14.1664V13.0787C14.1664 11.4514 13.7755 10.5332 12.7827 10.5332C11.4055 10.5332 10.8327 11.5232 10.8327 13.0787V17.7205H7.91636V8.13867ZM2.91636 17.5959H5.83273V8.01322H2.91636V17.595V17.5959ZM6.25 4.88776C6.2555 5.13746 6.21107 5.38575 6.11931 5.61805C6.02755 5.85034 5.89032 6.06198 5.71566 6.24052C5.54101 6.41906 5.33245 6.56092 5.10223 6.65777C4.87201 6.75462 4.62476 6.8045 4.375 6.8045C4.12524 6.8045 3.87799 6.75462 3.64777 6.65777C3.41755 6.56092 3.20899 6.41906 3.03433 6.24052C2.85968 6.06198 2.72245 5.85034 2.63069 5.61805C2.53893 5.38575 2.4945 5.13746 2.5 4.88776C2.51079 4.39763 2.71308 3.93121 3.06353 3.58839C3.41399 3.24556 3.88475 3.0536 4.375 3.0536C4.86525 3.0536 5.33601 3.24556 5.68647 3.58839C6.03692 3.93121 6.23921 4.39763 6.25 4.88776V4.88776Z" fill="#E5E5E5"/>
</svg>
