<svg width="35" height="35" viewBox="0 0 39 39" fill="none" xmlns="http://www.w3.org/2000/svg">
<path d="M19.5 37C29.1652 37 37 29.1652 37 19.5C37 9.83475 29.1652 2 19.5 2C9.83475 2 2 9.83475 2 19.5C2 29.1652 9.83475 37 19.5 37Z" stroke="#1A1A1A" stroke-width="3" stroke-linecap="round" stroke-linejoin="round"/>
<path d="M19.5 18.625C20.6603 18.625 21.7731 18.1641 22.5936 17.3436C23.4141 16.5231 23.875 15.4103 23.875 14.25C23.875 13.0897 23.4141 11.9769 22.5936 11.1564C21.7731 10.3359 20.6603 9.875 19.5 9.875C18.3397 9.875 17.2269 10.3359 16.4064 11.1564C15.5859 11.9769 15.125 13.0897 15.125 14.25C15.125 15.4103 15.5859 16.5231 16.4064 17.3436C17.2269 18.1641 18.3397 18.625 19.5 18.625Z" stroke="#1A1A1A" stroke-width="3" stroke-linejoin="round"/>
<path d="M7.26923 32.0405C7.57023 27.4809 11.3642 23.875 16 23.875H23C27.6296 23.875 31.4201 27.4713 31.7299 32.0221" stroke="#1A1A1A" stroke-width="3" stroke-linecap="round" stroke-linejoin="round"/>
</svg>
