<svg width="35" height="32" viewBox="0 0 35 32" fill="none" xmlns="http://www.w3.org/2000/svg">
<path d="M29.75 5.25H24.5V3.5C24.5 2.57174 24.1313 1.6815 23.4749 1.02513C22.8185 0.368749 21.9283 0 21 0H14C13.0717 0 12.1815 0.368749 11.5251 1.02513C10.8687 1.6815 10.5 2.57174 10.5 3.5V5.25H5.25C3.85761 5.25 2.52226 5.80312 1.53769 6.78769C0.553124 7.77226 0 9.10761 0 10.5V26.25C0 27.6424 0.553124 28.9777 1.53769 29.9623C2.52226 30.9469 3.85761 31.5 5.25 31.5H29.75C31.1424 31.5 32.4777 30.9469 33.4623 29.9623C34.4469 28.9777 35 27.6424 35 26.25V10.5C35 9.10761 34.4469 7.77226 33.4623 6.78769C32.4777 5.80312 31.1424 5.25 29.75 5.25ZM14 3.5H21V5.25H14V3.5ZM31.5 26.25C31.5 26.7141 31.3156 27.1593 30.9874 27.4874C30.6593 27.8156 30.2141 28 29.75 28H5.25C4.78587 28 4.34075 27.8156 4.01256 27.4874C3.68437 27.1593 3.5 26.7141 3.5 26.25V17.5H10.5V19.25C10.5 19.7141 10.6844 20.1592 11.0126 20.4874C11.3408 20.8156 11.7859 21 12.25 21C12.7141 21 13.1592 20.8156 13.4874 20.4874C13.8156 20.1592 14 19.7141 14 19.25V17.5H21V19.25C21 19.7141 21.1844 20.1592 21.5126 20.4874C21.8408 20.8156 22.2859 21 22.75 21C23.2141 21 23.6592 20.8156 23.9874 20.4874C24.3156 20.1592 24.5 19.7141 24.5 19.25V17.5H31.5V26.25ZM31.5 14H3.5V10.5C3.5 10.0359 3.68437 9.59075 4.01256 9.26256C4.34075 8.93437 4.78587 8.75 5.25 8.75H29.75C30.2141 8.75 30.6593 8.93437 30.9874 9.26256C31.3156 9.59075 31.5 10.0359 31.5 10.5V14Z" fill="#e5e5e5"/>
</svg>
