<svg width="181" height="36" viewBox="0 0 181 36" fill="none" xmlns="http://www.w3.org/2000/svg">
<path d="M35.5405 14.7956V27.416C35.5405 27.5411 35.6031 27.6193 35.7282 27.6506C36.2599 27.7444 36.8229 27.7913 37.4172 27.7913C39.4971 27.7913 41.0141 27.2596 41.968 26.1962C42.922 25.1171 43.399 23.3421 43.399 20.8712C43.399 18.6505 42.9063 17.0241 41.9211 15.992C40.9515 14.9442 39.4502 14.4203 37.4172 14.4203C36.8229 14.4203 36.2599 14.4672 35.7282 14.561C35.6031 14.5923 35.5405 14.6705 35.5405 14.7956ZM34.2973 29.7383C33.9063 29.6914 33.5857 29.5272 33.3355 29.2457C33.0853 28.9486 32.9602 28.6045 32.9602 28.2136V13.9981C32.9602 13.6071 33.0853 13.2709 33.3355 12.9894C33.5857 12.6922 33.9063 12.5202 34.2973 12.4733C35.2356 12.3638 36.2756 12.3091 37.4172 12.3091C40.1852 12.3091 42.2808 13.0285 43.7039 14.4672C45.1427 15.8903 45.8621 18.025 45.8621 20.8712C45.8621 26.8921 43.0471 29.9025 37.4172 29.9025C36.2756 29.9025 35.2356 29.8478 34.2973 29.7383ZM53.2266 23.522C51.9442 23.522 50.9746 23.7409 50.3178 24.1788C49.6766 24.601 49.356 25.1797 49.356 25.9147C49.356 26.4933 49.528 26.9703 49.8721 27.3456C50.2161 27.721 50.6306 27.9086 51.1154 27.9086C52.1475 27.9086 52.9685 27.588 53.5784 26.9468C54.204 26.29 54.5168 25.3986 54.5168 24.2726V23.7096C54.5168 23.5845 54.4464 23.522 54.3056 23.522H53.2266ZM50.5289 29.9025C49.4655 29.9025 48.5897 29.5585 47.9016 28.8704C47.2291 28.1823 46.8929 27.2753 46.8929 26.1493C46.8929 24.7731 47.4168 23.7096 48.4646 22.959C49.5124 22.1927 51.0997 21.8096 53.2266 21.8096H54.3056C54.4464 21.8096 54.5168 21.7392 54.5168 21.5984V21.3404C54.5168 20.5115 54.3213 19.9329 53.9303 19.6045C53.5393 19.2761 52.8356 19.1119 51.8191 19.1119C50.912 19.1119 49.833 19.2996 48.5819 19.6749C48.3473 19.7531 48.1206 19.7218 47.9016 19.581C47.6983 19.4247 47.5967 19.2214 47.5967 18.9711C47.5967 18.6584 47.6905 18.3769 47.8782 18.1267C48.0658 17.8764 48.3082 17.72 48.6053 17.6575C49.7313 17.376 50.8026 17.2353 51.8191 17.2353C53.7896 17.2353 55.1423 17.5871 55.8773 18.2909C56.6123 18.9946 56.9798 20.2848 56.9798 22.1614V28.5185C56.9798 28.8313 56.8626 29.105 56.628 29.3396C56.409 29.5585 56.1432 29.668 55.8304 29.668C55.5176 29.668 55.244 29.5585 55.0094 29.3396C54.7904 29.105 54.6731 28.8313 54.6575 28.5185L54.634 27.9321C54.634 27.9164 54.6262 27.9086 54.6106 27.9086C54.5793 27.9086 54.5637 27.9164 54.5637 27.9321C53.6566 29.2457 52.3117 29.9025 50.5289 29.9025ZM61.3762 28.4012L58.1155 18.7366C58.0061 18.4238 58.0452 18.1345 58.2328 17.8686C58.4361 17.6028 58.702 17.4698 59.0304 17.4698C59.4214 17.4698 59.7732 17.5871 60.086 17.8217C60.4144 18.0563 60.6334 18.3612 60.7428 18.7366L63.464 28.237C63.464 28.2527 63.4718 28.2605 63.4874 28.2605C63.503 28.2605 63.5109 28.2527 63.5109 28.237L66.2554 18.7131C66.3649 18.3534 66.5682 18.0563 66.8654 17.8217C67.1781 17.5871 67.5222 17.4698 67.8975 17.4698C68.2259 17.4698 68.4761 17.6028 68.6482 17.8686C68.8358 18.1188 68.8749 18.3925 68.7654 18.6896L65.5048 28.4012C65.3797 28.7766 65.1529 29.0815 64.8245 29.3161C64.5117 29.5507 64.1521 29.668 63.7454 29.668H63.1355C62.7446 29.668 62.3849 29.5507 62.0565 29.3161C61.7281 29.0815 61.5013 28.7766 61.3762 28.4012ZM70.9813 13.3647C70.9813 13.005 71.1064 12.7 71.3566 12.4498C71.6225 12.1996 71.9274 12.0745 72.2715 12.0745C72.6155 12.0745 72.9127 12.1996 73.1629 12.4498C73.4288 12.7 73.5617 13.005 73.5617 13.3647C73.5617 13.7244 73.4288 14.0293 73.1629 14.2795C72.9127 14.5298 72.6155 14.6549 72.2715 14.6549C71.9274 14.6549 71.6225 14.5298 71.3566 14.2795C71.1064 14.0293 70.9813 13.7244 70.9813 13.3647ZM73.1629 29.2926C72.9127 29.5429 72.6155 29.668 72.2715 29.668C71.9274 29.668 71.6225 29.5429 71.3566 29.2926C71.1064 29.0424 70.9813 28.7375 70.9813 28.3778V18.76C70.9813 18.4003 71.1064 18.0954 71.3566 17.8452C71.6225 17.5949 71.9274 17.4698 72.2715 17.4698C72.6155 17.4698 72.9127 17.5949 73.1629 17.8452C73.4288 18.0954 73.5617 18.4003 73.5617 18.76V28.3778C73.5617 28.7375 73.4288 29.0424 73.1629 29.2926ZM81.6364 19.1119C79.6033 19.1119 78.5868 20.5976 78.5868 23.5689C78.5868 25.0702 78.8527 26.1884 79.3844 26.9234C79.9317 27.6584 80.6824 28.0259 81.6364 28.0259C82.4652 28.0259 83.1768 27.7522 83.771 27.2049C84.3809 26.6575 84.6859 26.032 84.6859 25.3282V21.8096C84.6859 21.1058 84.3809 20.4803 83.771 19.9329C83.1768 19.3856 82.4652 19.1119 81.6364 19.1119ZM81.0499 29.9025C79.6268 29.9025 78.4461 29.3317 77.5078 28.1901C76.5851 27.0485 76.1237 25.5081 76.1237 23.5689C76.1237 21.5672 76.5694 20.0111 77.4608 18.9008C78.3679 17.7904 79.5642 17.2353 81.0499 17.2353C82.4417 17.2353 83.6303 17.7357 84.6155 18.7366C84.6312 18.7522 84.6468 18.76 84.6624 18.76C84.6781 18.76 84.6859 18.7522 84.6859 18.7366V13.2943C84.6859 12.9503 84.8032 12.6609 85.0378 12.4264C85.288 12.1918 85.5851 12.0745 85.9292 12.0745C86.2732 12.0745 86.5625 12.1918 86.7971 12.4264C87.0317 12.6609 87.149 12.9503 87.149 13.2943V28.5185C87.149 28.8313 87.0317 29.105 86.7971 29.3396C86.5782 29.5585 86.3123 29.668 85.9995 29.668C85.6868 29.668 85.4131 29.5585 85.1785 29.3396C84.9596 29.105 84.8423 28.8313 84.8266 28.5185L84.8032 28.1667C84.8032 28.151 84.7954 28.1432 84.7797 28.1432C84.7641 28.1432 84.7484 28.151 84.7328 28.1667C84.1542 28.8078 83.5834 29.2614 83.0204 29.5272C82.4574 29.7774 81.8006 29.9025 81.0499 29.9025Z" fill="#009FE3"/>
<path d="M99.962 22.0441C98.1792 21.4342 96.889 20.707 96.0914 19.8625C95.3095 19.0024 94.9185 17.9703 94.9185 16.7661C94.9185 15.3899 95.3564 14.303 96.2322 13.5054C97.1079 12.7079 98.3121 12.3091 99.8447 12.3091C101.283 12.3091 102.55 12.4811 103.645 12.8252C103.973 12.9346 104.239 13.1457 104.442 13.4585C104.661 13.7557 104.771 14.0919 104.771 14.4672C104.771 14.7331 104.654 14.9364 104.419 15.0771C104.184 15.2179 103.942 15.2335 103.692 15.124C102.503 14.6236 101.299 14.3734 100.079 14.3734C99.2348 14.3734 98.5858 14.5845 98.1322 15.0067C97.6787 15.429 97.452 16.0154 97.452 16.7661C97.452 17.376 97.6631 17.9312 98.0853 18.4316C98.5076 18.9164 99.1331 19.2996 99.962 19.581C102.026 20.2691 103.457 21.0354 104.255 21.8799C105.068 22.7244 105.475 23.7957 105.475 25.0937C105.475 26.6732 104.99 27.8695 104.02 28.6827C103.051 29.4959 101.62 29.9025 99.7274 29.9025C98.4919 29.9025 97.3738 29.7149 96.3729 29.3396C95.6379 29.0424 95.2704 28.4638 95.2704 27.6037C95.2704 27.3378 95.3877 27.1423 95.6222 27.0172C95.8568 26.8921 96.0914 26.8921 96.326 27.0172C97.2956 27.5333 98.3512 27.7913 99.4928 27.7913C101.76 27.7913 102.894 26.8921 102.894 25.0937C102.894 24.4056 102.667 23.8191 102.214 23.3343C101.776 22.8495 101.025 22.4195 99.962 22.0441ZM113.32 23.522C112.038 23.522 111.068 23.7409 110.411 24.1788C109.77 24.601 109.45 25.1797 109.45 25.9147C109.45 26.4933 109.622 26.9703 109.966 27.3456C110.31 27.721 110.724 27.9086 111.209 27.9086C112.241 27.9086 113.062 27.588 113.672 26.9468C114.298 26.29 114.61 25.3986 114.61 24.2726V23.7096C114.61 23.5845 114.54 23.522 114.399 23.522H113.32ZM110.623 29.9025C109.559 29.9025 108.683 29.5585 107.995 28.8704C107.323 28.1823 106.987 27.2753 106.987 26.1493C106.987 24.7731 107.51 23.7096 108.558 22.959C109.606 22.1927 111.193 21.8096 113.32 21.8096H114.399C114.54 21.8096 114.61 21.7392 114.61 21.5984V21.3404C114.61 20.5115 114.415 19.9329 114.024 19.6045C113.633 19.2761 112.929 19.1119 111.913 19.1119C111.006 19.1119 109.927 19.2996 108.675 19.6749C108.441 19.7531 108.214 19.7218 107.995 19.581C107.792 19.4247 107.69 19.2214 107.69 18.9711C107.69 18.6584 107.784 18.3769 107.972 18.1267C108.159 17.8764 108.402 17.72 108.699 17.6575C109.825 17.376 110.896 17.2353 111.913 17.2353C113.883 17.2353 115.236 17.5871 115.971 18.2909C116.706 18.9946 117.073 20.2848 117.073 22.1614V28.5185C117.073 28.8313 116.956 29.105 116.722 29.3396C116.503 29.5585 116.237 29.668 115.924 29.668C115.611 29.668 115.338 29.5585 115.103 29.3396C114.884 29.105 114.767 28.8313 114.751 28.5185L114.728 27.9321C114.728 27.9164 114.72 27.9086 114.704 27.9086C114.673 27.9086 114.657 27.9164 114.657 27.9321C113.75 29.2457 112.405 29.9025 110.623 29.9025ZM121.506 29.3161C121.271 29.5507 120.982 29.668 120.638 29.668C120.294 29.668 119.997 29.5507 119.746 29.3161C119.512 29.0815 119.395 28.7922 119.395 28.4482V18.6193C119.395 18.3065 119.504 18.0406 119.723 17.8217C119.957 17.5871 120.231 17.4698 120.544 17.4698C120.857 17.4698 121.123 17.5871 121.342 17.8217C121.576 18.0406 121.701 18.3065 121.717 18.6193L121.74 18.9711C121.74 18.9868 121.748 18.9946 121.764 18.9946C121.779 18.9946 121.795 18.9868 121.811 18.9711C122.921 17.8139 124.188 17.2353 125.611 17.2353C127.034 17.2353 128.074 17.6419 128.731 18.4551C129.388 19.2526 129.716 20.5663 129.716 22.396V28.4716C129.716 28.8 129.599 29.0815 129.364 29.3161C129.13 29.5507 128.848 29.668 128.52 29.668C128.191 29.668 127.902 29.5507 127.652 29.3161C127.417 29.0815 127.3 28.8 127.3 28.4716V22.7479C127.3 21.3404 127.128 20.3864 126.784 19.886C126.44 19.3699 125.814 19.1119 124.907 19.1119C124.172 19.1119 123.476 19.4403 122.819 20.0971C122.178 20.7383 121.858 21.4264 121.858 22.1614V28.4482C121.858 28.7922 121.74 29.0815 121.506 29.3161ZM131.934 19.8156C131.669 19.8156 131.442 19.7218 131.254 19.5341C131.082 19.3465 130.996 19.1275 130.996 18.8773C130.996 18.6271 131.082 18.4081 131.254 18.2205C131.442 18.0328 131.669 17.939 131.934 17.939H133.248C133.389 17.939 133.459 17.8686 133.459 17.7279V14.7018C133.459 14.3577 133.576 14.0684 133.811 13.8338C134.046 13.5993 134.335 13.482 134.679 13.482C135.023 13.482 135.312 13.5993 135.547 13.8338C135.797 14.0684 135.922 14.3577 135.922 14.7018V17.7279C135.922 17.8686 135.993 17.939 136.133 17.939H139.206C139.472 17.939 139.691 18.0328 139.863 18.2205C140.051 18.4081 140.145 18.6271 140.145 18.8773C140.145 19.1275 140.051 19.3465 139.863 19.5341C139.691 19.7218 139.472 19.8156 139.206 19.8156H136.133C135.993 19.8156 135.922 19.886 135.922 20.0267V25.4455C135.922 26.509 136.047 27.2049 136.298 27.5333C136.548 27.8617 137.048 28.0259 137.799 28.0259C138.159 28.0259 138.503 28.0025 138.831 27.9555C139.081 27.9243 139.3 27.979 139.488 28.1197C139.691 28.2605 139.793 28.4482 139.793 28.6827C139.793 28.9642 139.699 29.2144 139.511 29.4334C139.324 29.6523 139.089 29.7774 138.808 29.8087C138.151 29.8713 137.658 29.9025 137.33 29.9025C135.891 29.9025 134.882 29.5976 134.304 28.9877C133.741 28.3778 133.459 27.2753 133.459 25.6801V20.0267C133.459 19.886 133.389 19.8156 133.248 19.8156H131.934ZM150.514 23.5689C150.514 20.5976 149.435 19.1119 147.276 19.1119C145.118 19.1119 144.039 20.5976 144.039 23.5689C144.039 26.5402 145.118 28.0259 147.276 28.0259C149.435 28.0259 150.514 26.5402 150.514 23.5689ZM151.499 28.2605C150.482 29.3552 149.075 29.9025 147.276 29.9025C145.478 29.9025 144.071 29.3552 143.054 28.2605C142.038 27.1501 141.529 25.5863 141.529 23.5689C141.529 21.5515 142.038 19.9955 143.054 18.9008C144.071 17.7904 145.478 17.2353 147.276 17.2353C149.075 17.2353 150.482 17.7904 151.499 18.9008C152.515 19.9955 153.024 21.5515 153.024 23.5689C153.024 25.5863 152.515 27.1501 151.499 28.2605ZM158.641 24.5072C157.046 24.1163 155.92 23.6236 155.263 23.0294C154.622 22.4195 154.301 21.661 154.301 20.7539C154.301 19.6592 154.692 18.7991 155.474 18.1736C156.272 17.548 157.444 17.2353 158.993 17.2353C159.994 17.2353 161.002 17.3447 162.019 17.5637C162.3 17.6262 162.527 17.7826 162.699 18.0328C162.887 18.2674 162.98 18.5333 162.98 18.8304C162.98 19.0806 162.879 19.2761 162.676 19.4168C162.472 19.5576 162.253 19.5889 162.019 19.5107C161.033 19.2448 160.103 19.1119 159.227 19.1119C157.585 19.1119 156.764 19.581 156.764 20.5194C156.764 20.9885 156.921 21.3717 157.233 21.6688C157.546 21.9659 158.093 22.2083 158.875 22.396C160.674 22.8182 161.886 23.3265 162.511 23.9208C163.137 24.4994 163.45 25.3595 163.45 26.5011C163.45 27.5646 163.035 28.4012 162.206 29.0111C161.393 29.6054 160.205 29.9025 158.641 29.9025C157.624 29.9025 156.608 29.7696 155.591 29.5038C155.31 29.4256 155.083 29.2692 154.911 29.0346C154.739 28.7844 154.653 28.5107 154.653 28.2136C154.653 27.979 154.747 27.7913 154.934 27.6506C155.138 27.5098 155.349 27.4786 155.568 27.5568C156.537 27.8695 157.484 28.0259 158.406 28.0259C160.126 28.0259 160.987 27.5177 160.987 26.5011C160.987 26.0163 160.815 25.6254 160.47 25.3282C160.126 25.0155 159.517 24.7418 158.641 24.5072Z" fill="#F39200"/>
<path d="M28.8735 20.9716C28.8735 28.9462 22.4114 35.4099 14.4368 35.4099H0V8.37331C0 7.88613 0.193534 7.41889 0.538026 7.0744C0.882518 6.72991 1.34975 6.53638 1.83693 6.53638C2.32412 6.53638 2.79135 6.72991 3.13584 7.0744C3.48034 7.41889 3.67387 7.88613 3.67387 8.37331V31.7361H14.4368C17.2913 31.7361 20.0289 30.6021 22.0473 28.5837C24.0657 26.5652 25.1997 23.8277 25.1997 20.9732C25.1997 18.1187 24.0657 15.3811 22.0473 13.3626C20.0289 11.3442 17.2913 10.2102 14.4368 10.2102C14.1955 10.2102 13.9567 10.1627 13.7338 10.0704C13.5109 9.9781 13.3084 9.84279 13.1379 9.67222C12.9673 9.50164 12.832 9.29914 12.7397 9.07628C12.6474 8.85341 12.5998 8.61454 12.5998 8.37331C12.5998 8.13208 12.6474 7.89321 12.7397 7.67035C12.832 7.44748 12.9673 7.24498 13.1379 7.0744C13.3084 6.90383 13.5109 6.76852 13.7338 6.67621C13.9567 6.58389 14.1955 6.53638 14.4368 6.53638C14.4682 6.53638 14.4995 6.53638 14.5302 6.53638C17.416 6.55121 20.2306 7.43395 22.6081 9.06982C24.5411 10.395 26.122 12.1715 27.2137 14.2453C28.3055 16.3192 28.8752 18.6279 28.8735 20.9716Z" fill="#009FE3"/>
<path d="M22.6556 20.9717C22.656 22.051 22.4436 23.1199 22.0307 24.1172C21.6179 25.1145 21.0125 26.0206 20.2492 26.7838C19.4859 27.547 18.5797 28.1523 17.5824 28.5651C16.5851 28.9779 15.5162 29.1902 14.4368 29.1897H8.05882C7.57163 29.1897 7.1044 28.9961 6.75991 28.6516C6.41542 28.3071 6.22188 27.8399 6.22188 27.3527C6.22188 26.8655 6.41542 26.3983 6.75991 26.0538C7.1044 25.7093 7.57163 25.5158 8.05882 25.5158H14.4368C15.6412 25.5158 16.7962 25.0374 17.6478 24.1857C18.4994 23.3341 18.9779 22.1791 18.9779 20.9747C18.9779 19.7704 18.4994 18.6153 17.6478 17.7637C16.7962 16.9121 15.6412 16.4337 14.4368 16.4337C12.2576 16.4337 10.1676 15.568 8.62663 14.027C7.08567 12.4861 6.21997 10.3961 6.21997 8.21684C6.21997 6.0376 7.08567 3.94761 8.62663 2.40666C10.1676 0.8657 12.2576 0 14.4368 0H20.8186C21.3058 0 21.773 0.193534 22.1175 0.538026C22.462 0.882518 22.6556 1.34975 22.6556 1.83693C22.6556 2.32412 22.462 2.79135 22.1175 3.13584C21.773 3.48034 21.3058 3.67387 20.8186 3.67387H14.4368C13.2426 3.68937 12.1025 4.17467 11.2634 5.02467C10.4244 5.87467 9.95395 7.02095 9.95395 8.21531C9.95395 9.40966 10.4244 10.5559 11.2634 11.4059C12.1025 12.2559 13.2426 12.7412 14.4368 12.7567C15.516 12.7558 16.5849 12.9677 17.5822 13.3801C18.5795 13.7926 19.4857 14.3976 20.249 15.1606C21.0123 15.9235 21.6178 16.8295 22.0307 17.8266C22.4436 18.8237 22.656 19.8924 22.6556 20.9717Z" fill="#F39200"/>
</svg>
