<svg width="480" height="330" viewBox="0 0 480 330" fill="none" xmlns="http://www.w3.org/2000/svg">
<path d="M16.1246 213.755V258.938C16.1246 259.386 16.3485 259.666 16.7964 259.778C18.7 260.113 20.7156 260.281 22.8431 260.281C30.2895 260.281 35.7204 258.378 39.1357 254.571C42.5509 250.707 44.2586 244.353 44.2586 235.507C44.2586 227.556 42.4949 221.734 38.9677 218.038C35.4964 214.287 30.1216 212.412 22.8431 212.412C20.7156 212.412 18.7 212.58 16.7964 212.916C16.3485 213.028 16.1246 213.307 16.1246 213.755ZM11.6735 267.252C10.2738 267.084 9.12605 266.496 8.23024 265.488C7.33444 264.425 6.88653 263.193 6.88653 261.793V210.9C6.88653 209.5 7.33444 208.297 8.23024 207.289C9.12605 206.225 10.2738 205.609 11.6735 205.441C15.0328 205.049 18.756 204.853 22.8431 204.853C32.753 204.853 40.2554 207.429 45.3503 212.58C50.5012 217.675 53.0767 225.317 53.0767 235.507C53.0767 257.062 42.9988 267.84 22.8431 267.84C18.756 267.84 15.0328 267.644 11.6735 267.252ZM79.4425 244.997C74.8514 244.997 71.3802 245.781 69.0287 247.348C66.7332 248.86 65.5854 250.931 65.5854 253.563C65.5854 255.634 66.2013 257.342 67.433 258.686C68.6648 260.029 70.1484 260.701 71.8841 260.701C75.5793 260.701 78.5187 259.554 80.7022 257.258C82.9417 254.907 84.0615 251.715 84.0615 247.684V245.669C84.0615 245.221 83.8095 244.997 83.3056 244.997H79.4425ZM69.7845 267.84C65.9773 267.84 62.842 266.608 60.3785 264.145C57.971 261.681 56.7673 258.434 56.7673 254.403C56.7673 249.476 58.6429 245.669 62.3941 242.981C66.1453 240.238 71.8281 238.866 79.4425 238.866H83.3056C83.8095 238.866 84.0615 238.614 84.0615 238.11V237.186C84.0615 234.219 83.3616 232.147 81.9619 230.972C80.5622 229.796 78.0428 229.208 74.4035 229.208C71.1562 229.208 67.2931 229.88 62.814 231.224C61.9742 231.504 61.1624 231.392 60.3785 230.888C59.6507 230.328 59.2868 229.6 59.2868 228.704C59.2868 227.584 59.6227 226.577 60.2945 225.681C60.9664 224.785 61.8342 224.225 62.898 224.001C66.9291 222.993 70.7643 222.489 74.4035 222.489C81.458 222.489 86.301 223.749 88.9324 226.269C91.5639 228.788 92.8796 233.407 92.8796 240.126V262.885C92.8796 264.005 92.4597 264.984 91.6199 265.824C90.836 266.608 89.8842 267 88.7645 267C87.6447 267 86.6649 266.608 85.8251 265.824C85.0413 264.984 84.6214 264.005 84.5654 262.885L84.4814 260.785C84.4814 260.729 84.4534 260.701 84.3974 260.701C84.2854 260.701 84.2294 260.729 84.2294 260.785C80.9821 265.488 76.1672 267.84 69.7845 267.84ZM108.619 262.465L96.9455 227.864C96.5536 226.745 96.6936 225.709 97.3654 224.757C98.0933 223.805 99.0451 223.329 100.221 223.329C101.621 223.329 102.88 223.749 104 224.589C105.176 225.429 105.96 226.521 106.352 227.864L116.093 261.877C116.093 261.933 116.121 261.961 116.177 261.961C116.233 261.961 116.261 261.933 116.261 261.877L126.087 227.78C126.479 226.493 127.207 225.429 128.271 224.589C129.391 223.749 130.622 223.329 131.966 223.329C133.142 223.329 134.038 223.805 134.653 224.757C135.325 225.653 135.465 226.633 135.073 227.696L123.4 262.465C122.952 263.809 122.14 264.9 120.964 265.74C119.845 266.58 118.557 267 117.101 267H114.918C113.518 267 112.23 266.58 111.054 265.74C109.879 264.9 109.067 263.809 108.619 262.465ZM143.006 208.632C143.006 207.345 143.454 206.253 144.35 205.357C145.302 204.461 146.394 204.013 147.625 204.013C148.857 204.013 149.921 204.461 150.817 205.357C151.769 206.253 152.244 207.345 152.244 208.632C152.244 209.92 151.769 211.012 150.817 211.908C149.921 212.804 148.857 213.251 147.625 213.251C146.394 213.251 145.302 212.804 144.35 211.908C143.454 211.012 143.006 209.92 143.006 208.632ZM150.817 265.656C149.921 266.552 148.857 267 147.625 267C146.394 267 145.302 266.552 144.35 265.656C143.454 264.76 143.006 263.669 143.006 262.381V227.948C143.006 226.661 143.454 225.569 144.35 224.673C145.302 223.777 146.394 223.329 147.625 223.329C148.857 223.329 149.921 223.777 150.817 224.673C151.769 225.569 152.244 226.661 152.244 227.948V262.381C152.244 263.669 151.769 264.76 150.817 265.656ZM181.153 229.208C173.874 229.208 170.235 234.527 170.235 245.165C170.235 250.54 171.187 254.543 173.09 257.174C175.05 259.806 177.737 261.121 181.153 261.121C184.12 261.121 186.667 260.141 188.795 258.182C190.979 256.222 192.07 253.983 192.07 251.463V238.866C192.07 236.347 190.979 234.107 188.795 232.147C186.667 230.188 184.12 229.208 181.153 229.208ZM179.053 267.84C173.958 267.84 169.731 265.796 166.372 261.709C163.068 257.622 161.417 252.107 161.417 245.165C161.417 237.998 163.013 232.427 166.204 228.452C169.451 224.477 173.734 222.489 179.053 222.489C184.036 222.489 188.291 224.281 191.818 227.864C191.874 227.92 191.93 227.948 191.986 227.948C192.042 227.948 192.07 227.92 192.07 227.864V208.381C192.07 207.149 192.49 206.113 193.33 205.273C194.226 204.433 195.29 204.013 196.521 204.013C197.753 204.013 198.789 204.433 199.629 205.273C200.469 206.113 200.888 207.149 200.888 208.381V262.885C200.888 264.005 200.469 264.984 199.629 265.824C198.845 266.608 197.893 267 196.773 267C195.654 267 194.674 266.608 193.834 265.824C193.05 264.984 192.63 264.005 192.574 262.885L192.49 261.625C192.49 261.569 192.462 261.541 192.406 261.541C192.35 261.541 192.294 261.569 192.238 261.625C190.167 263.921 188.123 265.544 186.108 266.496C184.092 267.392 181.741 267.84 179.053 267.84Z" fill="#008FCC"/>
<path d="M246.76 239.706C240.378 237.522 235.759 234.919 232.903 231.895C230.104 228.816 228.704 225.121 228.704 220.81C228.704 215.883 230.272 211.992 233.407 209.136C236.543 206.281 240.854 204.853 246.34 204.853C251.491 204.853 256.026 205.469 259.946 206.701C261.121 207.093 262.073 207.849 262.801 208.968C263.585 210.032 263.977 211.236 263.977 212.58C263.977 213.531 263.557 214.259 262.717 214.763C261.877 215.267 261.009 215.323 260.114 214.931C255.858 213.139 251.547 212.244 247.18 212.244C244.157 212.244 241.833 213 240.21 214.511C238.586 216.023 237.774 218.122 237.774 220.81C237.774 222.993 238.53 224.981 240.042 226.773C241.553 228.508 243.793 229.88 246.76 230.888C254.151 233.351 259.274 236.095 262.129 239.118C265.04 242.141 266.496 245.976 266.496 250.623C266.496 256.278 264.761 260.561 261.289 263.473C257.818 266.384 252.695 267.84 245.921 267.84C241.497 267.84 237.494 267.168 233.911 265.824C231.28 264.76 229.964 262.689 229.964 259.61C229.964 258.658 230.384 257.958 231.224 257.51C232.063 257.062 232.903 257.062 233.743 257.51C237.214 259.358 240.994 260.281 245.081 260.281C253.199 260.281 257.258 257.062 257.258 250.623C257.258 248.16 256.446 246.06 254.823 244.325C253.255 242.589 250.568 241.05 246.76 239.706ZM294.584 244.997C289.993 244.997 286.522 245.781 284.17 247.348C281.875 248.86 280.727 250.931 280.727 253.563C280.727 255.634 281.343 257.342 282.575 258.686C283.807 260.029 285.29 260.701 287.026 260.701C290.721 260.701 293.66 259.554 295.844 257.258C298.083 254.907 299.203 251.715 299.203 247.684V245.669C299.203 245.221 298.951 244.997 298.447 244.997H294.584ZM284.926 267.84C281.119 267.84 277.984 266.608 275.52 264.145C273.113 261.681 271.909 258.434 271.909 254.403C271.909 249.476 273.785 245.669 277.536 242.981C281.287 240.238 286.97 238.866 294.584 238.866H298.447C298.951 238.866 299.203 238.614 299.203 238.11V237.186C299.203 234.219 298.503 232.147 297.104 230.972C295.704 229.796 293.185 229.208 289.545 229.208C286.298 229.208 282.435 229.88 277.956 231.224C277.116 231.504 276.304 231.392 275.52 230.888C274.792 230.328 274.429 229.6 274.429 228.704C274.429 227.584 274.764 226.577 275.436 225.681C276.108 224.785 276.976 224.225 278.04 224.001C282.071 222.993 285.906 222.489 289.545 222.489C296.6 222.489 301.443 223.749 304.074 226.269C306.706 228.788 308.021 233.407 308.021 240.126V262.885C308.021 264.005 307.601 264.984 306.762 265.824C305.978 266.608 305.026 267 303.906 267C302.786 267 301.807 266.608 300.967 265.824C300.183 264.984 299.763 264.005 299.707 262.885L299.623 260.785C299.623 260.729 299.595 260.701 299.539 260.701C299.427 260.701 299.371 260.729 299.371 260.785C296.124 265.488 291.309 267.84 284.926 267.84ZM323.889 265.74C323.05 266.58 322.014 267 320.782 267C319.55 267 318.487 266.58 317.591 265.74C316.751 264.9 316.331 263.865 316.331 262.633V227.444C316.331 226.325 316.723 225.373 317.507 224.589C318.347 223.749 319.326 223.329 320.446 223.329C321.566 223.329 322.518 223.749 323.302 224.589C324.141 225.373 324.589 226.325 324.645 227.444L324.729 228.704C324.729 228.76 324.757 228.788 324.813 228.788C324.869 228.788 324.925 228.76 324.981 228.704C328.956 224.561 333.491 222.489 338.586 222.489C343.681 222.489 347.404 223.945 349.756 226.857C352.107 229.712 353.283 234.415 353.283 240.966V262.717C353.283 263.893 352.863 264.9 352.023 265.74C351.184 266.58 350.176 267 349 267C347.824 267 346.789 266.58 345.893 265.74C345.053 264.9 344.633 263.893 344.633 262.717V242.225C344.633 237.186 344.017 233.771 342.785 231.979C341.554 230.132 339.314 229.208 336.067 229.208C333.435 229.208 330.944 230.384 328.592 232.735C326.297 235.031 325.149 237.494 325.149 240.126V262.633C325.149 263.865 324.729 264.9 323.889 265.74ZM361.225 231.728C360.274 231.728 359.462 231.392 358.79 230.72C358.174 230.048 357.866 229.264 357.866 228.368C357.866 227.472 358.174 226.689 358.79 226.017C359.462 225.345 360.274 225.009 361.225 225.009H365.928C366.432 225.009 366.684 224.757 366.684 224.253V213.419C366.684 212.188 367.104 211.152 367.944 210.312C368.784 209.472 369.819 209.052 371.051 209.052C372.283 209.052 373.319 209.472 374.159 210.312C375.054 211.152 375.502 212.188 375.502 213.419V224.253C375.502 224.757 375.754 225.009 376.258 225.009H387.26C388.212 225.009 388.995 225.345 389.611 226.017C390.283 226.689 390.619 227.472 390.619 228.368C390.619 229.264 390.283 230.048 389.611 230.72C388.995 231.392 388.212 231.728 387.26 231.728H376.258C375.754 231.728 375.502 231.979 375.502 232.483V251.883C375.502 255.69 375.95 258.182 376.846 259.358C377.742 260.533 379.533 261.121 382.221 261.121C383.509 261.121 384.74 261.037 385.916 260.869C386.812 260.757 387.596 260.953 388.268 261.457C388.995 261.961 389.359 262.633 389.359 263.473C389.359 264.481 389.023 265.376 388.352 266.16C387.68 266.944 386.84 267.392 385.832 267.504C383.481 267.728 381.717 267.84 380.541 267.84C375.39 267.84 371.779 266.748 369.708 264.565C367.692 262.381 366.684 258.434 366.684 252.723V232.483C366.684 231.979 366.432 231.728 365.928 231.728H361.225ZM427.741 245.165C427.741 234.527 423.878 229.208 416.152 229.208C408.425 229.208 404.562 234.527 404.562 245.165C404.562 255.802 408.425 261.121 416.152 261.121C423.878 261.121 427.741 255.802 427.741 245.165ZM431.268 261.961C427.629 265.88 422.59 267.84 416.152 267.84C409.713 267.84 404.674 265.88 401.035 261.961C397.396 257.986 395.576 252.387 395.576 245.165C395.576 237.942 397.396 232.371 401.035 228.452C404.674 224.477 409.713 222.489 416.152 222.489C422.59 222.489 427.629 224.477 431.268 228.452C434.908 232.371 436.727 237.942 436.727 245.165C436.727 252.387 434.908 257.986 431.268 261.961ZM456.837 248.524C451.126 247.124 447.095 245.361 444.744 243.233C442.448 241.05 441.3 238.334 441.3 235.087C441.3 231.168 442.7 228.088 445.499 225.849C448.355 223.609 452.554 222.489 458.097 222.489C461.68 222.489 465.291 222.881 468.93 223.665C469.938 223.889 470.75 224.449 471.366 225.345C472.038 226.185 472.374 227.137 472.374 228.2C472.374 229.096 472.01 229.796 471.282 230.3C470.554 230.804 469.77 230.916 468.93 230.636C465.403 229.684 462.072 229.208 458.937 229.208C453.058 229.208 450.118 230.888 450.118 234.247C450.118 235.927 450.678 237.298 451.798 238.362C452.918 239.426 454.877 240.294 457.677 240.966C464.115 242.477 468.454 244.297 470.694 246.424C472.934 248.496 474.053 251.575 474.053 255.662C474.053 259.47 472.57 262.465 469.602 264.649C466.691 266.776 462.436 267.84 456.837 267.84C453.198 267.84 449.559 267.364 445.919 266.412C444.912 266.132 444.1 265.572 443.484 264.732C442.868 263.837 442.56 262.857 442.56 261.793C442.56 260.953 442.896 260.281 443.568 259.778C444.296 259.274 445.051 259.162 445.835 259.442C449.307 260.561 452.694 261.121 455.997 261.121C462.156 261.121 465.235 259.302 465.235 255.662C465.235 253.927 464.619 252.527 463.388 251.463C462.156 250.344 459.972 249.364 456.837 248.524Z" fill="#F0A500"/>
<path d="M305.281 95.3527C305.281 131.611 275.899 161 239.64 161H174V38.0714C174 35.8563 174.88 33.7319 176.446 32.1656C178.013 30.5992 180.137 29.7193 182.352 29.7193C184.567 29.7193 186.692 30.5992 188.258 32.1656C189.824 33.7319 190.704 35.8563 190.704 38.0714V144.296H239.64C252.619 144.296 265.066 139.14 274.243 129.963C283.421 120.785 288.577 108.338 288.577 95.3596C288.577 82.381 283.421 69.9338 274.243 60.7565C265.066 51.5792 252.619 46.4234 239.64 46.4234C238.544 46.4234 237.457 46.2074 236.444 45.7877C235.431 45.368 234.51 44.7527 233.735 43.9772C232.959 43.2016 232.344 42.2809 231.924 41.2676C231.504 40.2543 231.288 39.1682 231.288 38.0714C231.288 36.9746 231.504 35.8885 231.924 34.8752C232.344 33.8619 232.959 32.9411 233.735 32.1656C234.51 31.39 235.431 30.7748 236.444 30.3551C237.457 29.9353 238.544 29.7193 239.64 29.7193C239.783 29.7193 239.926 29.7193 240.065 29.7193C253.186 29.7867 265.984 33.8003 276.793 41.2382C285.582 47.2635 292.77 55.3406 297.734 64.7699C302.698 74.1993 305.288 84.6966 305.281 95.3527Z" fill="#008FCC"/>
<path d="M277.009 95.3529C277.011 100.261 276.046 105.12 274.168 109.655C272.291 114.189 269.538 118.309 266.068 121.779C262.598 125.249 258.477 128.002 253.943 129.878C249.408 131.755 244.548 132.72 239.641 132.718H210.641C208.426 132.718 206.302 131.838 204.736 130.272C203.169 128.705 202.289 126.581 202.289 124.366C202.289 122.151 203.169 120.026 204.736 118.46C206.302 116.894 208.426 116.014 210.641 116.014H239.641C245.116 116.014 250.368 113.839 254.24 109.966C258.112 106.094 260.288 100.843 260.288 95.3668C260.288 89.8909 258.112 84.6392 254.24 80.7671C250.368 76.8951 245.116 74.7198 239.641 74.7198C229.732 74.7198 220.229 70.7836 213.223 63.7773C206.217 56.771 202.281 47.2683 202.281 37.3599C202.281 27.4514 206.217 17.9488 213.223 10.9425C220.229 3.93612 229.732 0 239.641 0H268.657C270.872 0 272.997 0.879948 274.563 2.44627C276.129 4.01258 277.009 6.13697 277.009 8.35208C277.009 10.5672 276.129 12.6916 274.563 14.2579C272.997 15.8242 270.872 16.7042 268.657 16.7042H239.641C234.211 16.7746 229.027 18.9812 225.212 22.8459C221.397 26.7106 219.258 31.9225 219.258 37.3529C219.258 42.7833 221.397 47.9952 225.212 51.8599C229.027 55.7247 234.211 57.9312 239.641 58.0017C244.548 57.9976 249.407 58.9608 253.942 60.8362C258.476 62.7116 262.597 65.4624 266.067 68.9314C269.538 72.4003 272.29 76.5194 274.168 81.053C276.045 85.5866 277.011 90.4459 277.009 95.3529Z" fill="#F0A500"/>
<path d="M46.508 316.568C46.244 316.856 45.908 317 45.5 317C45.092 317 44.744 316.856 44.456 316.568C44.192 316.28 44.06 315.944 44.06 315.56V292.772C44.06 292.22 44.264 291.74 44.672 291.332C45.08 290.924 45.56 290.72 46.112 290.72H57.848C58.184 290.72 58.472 290.84 58.712 291.08C58.952 291.32 59.072 291.596 59.072 291.908C59.072 292.22 58.952 292.508 58.712 292.772C58.472 293.012 58.184 293.132 57.848 293.132H47.264C47.048 293.132 46.94 293.228 46.94 293.42V301.772C46.94 301.964 47.048 302.06 47.264 302.06H57.2C57.536 302.06 57.812 302.18 58.028 302.42C58.244 302.636 58.352 302.9 58.352 303.212C58.352 303.524 58.244 303.8 58.028 304.04C57.812 304.256 57.536 304.364 57.2 304.364H47.264C47.048 304.364 46.94 304.472 46.94 304.688V315.56C46.94 315.944 46.796 316.28 46.508 316.568ZM68.9264 316.568C68.6624 316.856 68.3264 317 67.9184 317C67.5104 317 67.1624 316.856 66.8744 316.568C66.6104 316.28 66.4784 315.944 66.4784 315.56V299.648C66.4784 299.264 66.6104 298.94 66.8744 298.676C67.1384 298.412 67.4624 298.28 67.8464 298.28C68.2304 298.28 68.5544 298.412 68.8184 298.676C69.0824 298.94 69.2144 299.264 69.2144 299.648V302.42C69.2144 302.444 69.2264 302.456 69.2504 302.456C69.2984 302.456 69.3224 302.432 69.3224 302.384C70.0424 301.184 71.0504 300.224 72.3464 299.504C73.6664 298.76 75.1424 298.352 76.7744 298.28C77.1104 298.256 77.3984 298.364 77.6384 298.604C77.8784 298.844 77.9984 299.132 77.9984 299.468C77.9984 299.78 77.8784 300.056 77.6384 300.296C77.4224 300.536 77.1464 300.668 76.8104 300.692C74.4344 300.788 72.5984 301.484 71.3024 302.78C70.0064 304.052 69.3584 305.84 69.3584 308.144V315.56C69.3584 315.944 69.2144 316.28 68.9264 316.568ZM97.9303 307.64C97.9303 302.6 96.0103 300.08 92.1703 300.08C88.3303 300.08 86.4103 302.6 86.4103 307.64C86.4103 312.68 88.3303 315.2 92.1703 315.2C96.0103 315.2 97.9303 312.68 97.9303 307.64ZM98.4703 314.804C96.9583 316.508 94.8583 317.36 92.1703 317.36C89.4823 317.36 87.3823 316.508 85.8703 314.804C84.3583 313.1 83.6023 310.712 83.6023 307.64C83.6023 304.568 84.3583 302.18 85.8703 300.476C87.3823 298.772 89.4823 297.92 92.1703 297.92C94.8583 297.92 96.9583 298.772 98.4703 300.476C99.9823 302.18 100.738 304.568 100.738 307.64C100.738 310.712 99.9823 313.1 98.4703 314.804ZM110.086 316.604C109.822 316.868 109.498 317 109.114 317C108.73 317 108.406 316.868 108.142 316.604C107.878 316.34 107.746 316.016 107.746 315.632V299.576C107.746 299.216 107.866 298.916 108.106 298.676C108.37 298.412 108.682 298.28 109.042 298.28C109.402 298.28 109.714 298.412 109.978 298.676C110.242 298.916 110.374 299.216 110.374 299.576V301.052C110.374 301.076 110.386 301.088 110.41 301.088C110.434 301.088 110.458 301.076 110.482 301.052C112.21 298.964 114.262 297.92 116.638 297.92C118.822 297.92 120.406 298.532 121.39 299.756C122.374 300.98 122.866 303.008 122.866 305.84V315.632C122.866 316.016 122.734 316.34 122.47 316.604C122.23 316.868 121.918 317 121.534 317C121.15 317 120.826 316.868 120.562 316.604C120.298 316.34 120.166 316.016 120.166 315.632V306.2C120.166 303.824 119.842 302.216 119.194 301.376C118.546 300.512 117.454 300.08 115.918 300.08C114.67 300.08 113.458 300.668 112.282 301.844C111.106 302.996 110.518 304.184 110.518 305.408V315.632C110.518 316.016 110.374 316.34 110.086 316.604ZM130.459 301.16C130.147 301.16 129.883 301.064 129.667 300.872C129.475 300.656 129.379 300.392 129.379 300.08C129.379 299.768 129.475 299.516 129.667 299.324C129.883 299.108 130.147 299 130.459 299H133.087C133.303 299 133.411 298.892 133.411 298.676V293.528C133.411 293.144 133.543 292.82 133.807 292.556C134.071 292.292 134.395 292.16 134.779 292.16C135.163 292.16 135.487 292.292 135.751 292.556C136.015 292.82 136.147 293.144 136.147 293.528V298.676C136.147 298.892 136.255 299 136.471 299H141.871C142.183 299 142.435 299.108 142.627 299.324C142.843 299.516 142.951 299.768 142.951 300.08C142.951 300.392 142.843 300.656 142.627 300.872C142.435 301.064 142.183 301.16 141.871 301.16H136.471C136.255 301.16 136.147 301.268 136.147 301.484V310.988C136.147 312.716 136.375 313.856 136.831 314.408C137.287 314.936 138.163 315.2 139.459 315.2C140.227 315.2 140.863 315.14 141.367 315.02C141.631 314.972 141.871 315.032 142.087 315.2C142.327 315.344 142.447 315.548 142.447 315.812C142.447 316.148 142.339 316.448 142.123 316.712C141.931 316.976 141.679 317.132 141.367 317.18C140.743 317.3 139.951 317.36 138.991 317.36C136.879 317.36 135.415 316.928 134.599 316.064C133.807 315.176 133.411 313.568 133.411 311.24V301.484C133.411 301.268 133.303 301.16 133.087 301.16H130.459ZM151.822 307.82C151.51 307.82 151.246 307.712 151.03 307.496C150.814 307.256 150.706 306.98 150.706 306.668C150.706 306.356 150.814 306.092 151.03 305.876C151.246 305.66 151.51 305.552 151.822 305.552H160.606C160.918 305.552 161.182 305.66 161.398 305.876C161.614 306.092 161.722 306.356 161.722 306.668C161.722 306.98 161.614 307.256 161.398 307.496C161.182 307.712 160.918 307.82 160.606 307.82H151.822ZM177.547 300.008C174.211 300.008 172.387 301.988 172.075 305.948C172.075 306.14 172.183 306.236 172.399 306.236H182.083C182.275 306.236 182.371 306.14 182.371 305.948C182.227 301.988 180.619 300.008 177.547 300.008ZM178.303 317.36C175.351 317.36 173.107 316.556 171.571 314.948C170.035 313.316 169.267 310.88 169.267 307.64C169.267 304.304 169.999 301.856 171.463 300.296C172.951 298.712 174.979 297.92 177.547 297.92C182.275 297.92 184.783 300.716 185.071 306.308C185.095 306.884 184.891 307.376 184.459 307.784C184.051 308.168 183.559 308.36 182.983 308.36H172.327C172.135 308.36 172.039 308.468 172.039 308.684C172.255 313.076 174.427 315.272 178.555 315.272C179.923 315.272 181.327 315.02 182.767 314.516C183.031 314.42 183.283 314.456 183.523 314.624C183.763 314.768 183.883 314.984 183.883 315.272C183.883 316.088 183.511 316.592 182.767 316.784C181.231 317.168 179.743 317.36 178.303 317.36ZM194.626 316.604C194.362 316.868 194.038 317 193.654 317C193.27 317 192.946 316.868 192.682 316.604C192.418 316.34 192.286 316.016 192.286 315.632V299.576C192.286 299.216 192.406 298.916 192.646 298.676C192.91 298.412 193.222 298.28 193.582 298.28C193.942 298.28 194.254 298.412 194.518 298.676C194.782 298.916 194.914 299.216 194.914 299.576V301.052C194.914 301.076 194.926 301.088 194.95 301.088C194.974 301.088 194.998 301.076 195.022 301.052C196.75 298.964 198.802 297.92 201.178 297.92C203.362 297.92 204.946 298.532 205.93 299.756C206.914 300.98 207.406 303.008 207.406 305.84V315.632C207.406 316.016 207.274 316.34 207.01 316.604C206.77 316.868 206.458 317 206.074 317C205.69 317 205.366 316.868 205.102 316.604C204.838 316.34 204.706 316.016 204.706 315.632V306.2C204.706 303.824 204.382 302.216 203.734 301.376C203.086 300.512 201.994 300.08 200.458 300.08C199.21 300.08 197.998 300.668 196.822 301.844C195.646 302.996 195.058 304.184 195.058 305.408V315.632C195.058 316.016 194.914 316.34 194.626 316.604ZM222.577 300.08C218.977 300.08 217.177 302.6 217.177 307.64C217.177 310.136 217.645 312.02 218.581 313.292C219.541 314.564 220.873 315.2 222.577 315.2C223.969 315.2 225.217 314.72 226.321 313.76C227.425 312.776 227.977 311.66 227.977 310.412V304.868C227.977 303.644 227.425 302.54 226.321 301.556C225.241 300.572 223.993 300.08 222.577 300.08ZM222.001 317.36C219.769 317.36 217.945 316.496 216.529 314.768C215.137 313.016 214.441 310.64 214.441 307.64C214.441 304.544 215.113 302.156 216.457 300.476C217.825 298.772 219.673 297.92 222.001 297.92C224.353 297.92 226.309 298.844 227.869 300.692C227.893 300.716 227.917 300.728 227.941 300.728C227.965 300.728 227.977 300.716 227.977 300.692V291.368C227.977 290.984 228.109 290.66 228.373 290.396C228.661 290.132 228.997 290 229.381 290C229.765 290 230.089 290.132 230.353 290.396C230.617 290.66 230.749 290.984 230.749 291.368V315.704C230.749 316.064 230.617 316.376 230.353 316.64C230.113 316.88 229.813 317 229.453 317C229.093 317 228.781 316.88 228.517 316.64C228.253 316.376 228.121 316.064 228.121 315.704V314.372C228.121 314.348 228.109 314.336 228.085 314.336C228.061 314.336 228.037 314.348 228.013 314.372C226.405 316.364 224.401 317.36 222.001 317.36ZM255.037 293.384V314.336C255.037 314.528 255.145 314.648 255.361 314.696C256.297 314.864 257.353 314.948 258.529 314.948C262.009 314.948 264.553 314.048 266.161 312.248C267.793 310.448 268.609 307.532 268.609 303.5C268.609 299.828 267.781 297.128 266.125 295.4C264.493 293.648 261.961 292.772 258.529 292.772C257.353 292.772 256.297 292.856 255.361 293.024C255.145 293.072 255.037 293.192 255.037 293.384ZM254.173 317.108C253.597 317.036 253.117 316.784 252.733 316.352C252.349 315.896 252.157 315.368 252.157 314.768V292.952C252.157 292.352 252.337 291.836 252.697 291.404C253.081 290.948 253.573 290.684 254.173 290.612C255.493 290.444 256.945 290.36 258.529 290.36C267.073 290.36 271.345 294.74 271.345 303.5C271.345 312.74 267.073 317.36 258.529 317.36C256.945 317.36 255.493 317.276 254.173 317.108ZM285.392 300.008C282.056 300.008 280.232 301.988 279.92 305.948C279.92 306.14 280.028 306.236 280.244 306.236H289.928C290.12 306.236 290.216 306.14 290.216 305.948C290.072 301.988 288.464 300.008 285.392 300.008ZM286.148 317.36C283.196 317.36 280.952 316.556 279.416 314.948C277.88 313.316 277.112 310.88 277.112 307.64C277.112 304.304 277.844 301.856 279.308 300.296C280.796 298.712 282.824 297.92 285.392 297.92C290.12 297.92 292.628 300.716 292.916 306.308C292.94 306.884 292.736 307.376 292.304 307.784C291.896 308.168 291.404 308.36 290.828 308.36H280.172C279.98 308.36 279.884 308.468 279.884 308.684C280.1 313.076 282.272 315.272 286.4 315.272C287.768 315.272 289.172 315.02 290.612 314.516C290.876 314.42 291.128 314.456 291.368 314.624C291.608 314.768 291.728 314.984 291.728 315.272C291.728 316.088 291.356 316.592 290.612 316.784C289.076 317.168 287.588 317.36 286.148 317.36ZM303.96 315.236L298.38 299.684C298.26 299.348 298.296 299.036 298.488 298.748C298.704 298.436 298.992 298.28 299.352 298.28C299.808 298.28 300.216 298.412 300.576 298.676C300.936 298.94 301.188 299.288 301.332 299.72L306.444 315.344C306.444 315.368 306.456 315.38 306.48 315.38C306.528 315.38 306.552 315.368 306.552 315.344L311.664 299.648C311.784 299.24 312.024 298.916 312.384 298.676C312.744 298.412 313.14 298.28 313.572 298.28C313.932 298.28 314.208 298.424 314.4 298.712C314.616 299 314.664 299.312 314.544 299.648L308.928 315.236C308.736 315.764 308.412 316.196 307.956 316.532C307.5 316.844 306.996 317 306.444 317C305.892 317 305.376 316.844 304.896 316.532C304.44 316.196 304.128 315.764 303.96 315.236ZM327.82 300.008C324.484 300.008 322.66 301.988 322.348 305.948C322.348 306.14 322.456 306.236 322.672 306.236H332.356C332.548 306.236 332.644 306.14 332.644 305.948C332.5 301.988 330.892 300.008 327.82 300.008ZM328.576 317.36C325.624 317.36 323.38 316.556 321.844 314.948C320.308 313.316 319.54 310.88 319.54 307.64C319.54 304.304 320.272 301.856 321.736 300.296C323.224 298.712 325.252 297.92 327.82 297.92C332.548 297.92 335.056 300.716 335.344 306.308C335.368 306.884 335.164 307.376 334.732 307.784C334.324 308.168 333.832 308.36 333.256 308.36H322.6C322.408 308.36 322.312 308.468 322.312 308.684C322.528 313.076 324.7 315.272 328.828 315.272C330.196 315.272 331.6 315.02 333.04 314.516C333.304 314.42 333.556 314.456 333.796 314.624C334.036 314.768 334.156 314.984 334.156 315.272C334.156 316.088 333.784 316.592 333.04 316.784C331.504 317.168 330.016 317.36 328.576 317.36ZM346.447 316.568C346.183 316.856 345.847 317 345.439 317C345.031 317 344.683 316.856 344.395 316.568C344.131 316.28 343.999 315.944 343.999 315.56V291.44C343.999 291.056 344.131 290.72 344.395 290.432C344.683 290.144 345.031 290 345.439 290C345.847 290 346.183 290.144 346.447 290.432C346.735 290.72 346.879 291.056 346.879 291.44V315.56C346.879 315.944 346.735 316.28 346.447 316.568ZM369.652 307.64C369.652 302.6 367.732 300.08 363.892 300.08C360.052 300.08 358.132 302.6 358.132 307.64C358.132 312.68 360.052 315.2 363.892 315.2C367.732 315.2 369.652 312.68 369.652 307.64ZM370.192 314.804C368.68 316.508 366.58 317.36 363.892 317.36C361.204 317.36 359.104 316.508 357.592 314.804C356.08 313.1 355.324 310.712 355.324 307.64C355.324 304.568 356.08 302.18 357.592 300.476C359.104 298.772 361.204 297.92 363.892 297.92C366.58 297.92 368.68 298.772 370.192 300.476C371.704 302.18 372.46 304.568 372.46 307.64C372.46 310.712 371.704 313.1 370.192 314.804ZM382.24 305.084V310.196C382.24 311.564 382.78 312.74 383.86 313.724C384.94 314.708 386.2 315.2 387.64 315.2C389.344 315.2 390.664 314.564 391.6 313.292C392.56 311.996 393.04 310.112 393.04 307.64C393.04 302.6 391.24 300.08 387.64 300.08C386.176 300.08 384.904 300.584 383.824 301.592C382.768 302.576 382.24 303.74 382.24 305.084ZM381.844 324.524C381.58 324.788 381.256 324.92 380.872 324.92C380.488 324.92 380.152 324.788 379.864 324.524C379.6 324.26 379.468 323.936 379.468 323.552V299.576C379.468 299.216 379.588 298.916 379.828 298.676C380.092 298.412 380.404 298.28 380.764 298.28C381.124 298.28 381.436 298.412 381.7 298.676C381.964 298.916 382.096 299.216 382.096 299.576L382.132 300.944C382.132 300.968 382.144 300.98 382.168 300.98L382.24 300.908C383.824 298.916 385.828 297.92 388.252 297.92C390.58 297.92 392.416 298.772 393.76 300.476C395.128 302.156 395.812 304.544 395.812 307.64C395.812 310.64 395.104 313.016 393.688 314.768C392.296 316.496 390.484 317.36 388.252 317.36C385.804 317.36 383.836 316.436 382.348 314.588C382.324 314.564 382.3 314.552 382.276 314.552C382.252 314.552 382.24 314.564 382.24 314.588V323.552C382.24 323.936 382.108 324.26 381.844 324.524ZM410.391 300.008C407.055 300.008 405.231 301.988 404.919 305.948C404.919 306.14 405.027 306.236 405.243 306.236H414.927C415.119 306.236 415.215 306.14 415.215 305.948C415.071 301.988 413.463 300.008 410.391 300.008ZM411.147 317.36C408.195 317.36 405.951 316.556 404.415 314.948C402.879 313.316 402.111 310.88 402.111 307.64C402.111 304.304 402.843 301.856 404.307 300.296C405.795 298.712 407.823 297.92 410.391 297.92C415.119 297.92 417.627 300.716 417.915 306.308C417.939 306.884 417.735 307.376 417.303 307.784C416.895 308.168 416.403 308.36 415.827 308.36H405.171C404.979 308.36 404.883 308.468 404.883 308.684C405.099 313.076 407.271 315.272 411.399 315.272C412.767 315.272 414.171 315.02 415.611 314.516C415.875 314.42 416.127 314.456 416.367 314.624C416.607 314.768 416.727 314.984 416.727 315.272C416.727 316.088 416.355 316.592 415.611 316.784C414.075 317.168 412.587 317.36 411.147 317.36ZM427.578 316.568C427.314 316.856 426.978 317 426.57 317C426.162 317 425.814 316.856 425.526 316.568C425.262 316.28 425.13 315.944 425.13 315.56V299.648C425.13 299.264 425.262 298.94 425.526 298.676C425.79 298.412 426.114 298.28 426.498 298.28C426.882 298.28 427.206 298.412 427.47 298.676C427.734 298.94 427.866 299.264 427.866 299.648V302.42C427.866 302.444 427.878 302.456 427.902 302.456C427.95 302.456 427.974 302.432 427.974 302.384C428.694 301.184 429.702 300.224 430.998 299.504C432.318 298.76 433.794 298.352 435.426 298.28C435.762 298.256 436.05 298.364 436.29 298.604C436.53 298.844 436.65 299.132 436.65 299.468C436.65 299.78 436.53 300.056 436.29 300.296C436.074 300.536 435.798 300.668 435.462 300.692C433.086 300.788 431.25 301.484 429.954 302.78C428.658 304.052 428.01 305.84 428.01 308.144V315.56C428.01 315.944 427.866 316.28 427.578 316.568Z" fill="#E6E6E6"/>
</svg>
